HIERARCHY
ROOT Hips
{
 OFFSET 0.000000 0.000000 0.000000
 CHANNELS 6 Xposition Yposition Zposition Yrotation Xrotation Zrotation
 JOINT Chest
 {
  OFFSET 0.000000 9.585900 0.002600
  CHANNELS 3 Yrotation Xrotation Zrotation
  JOINT Chest2
  {
   OFFSET 0.000000 9.601200 -0.005300
   CHANNELS 3 Yrotation Xrotation Zrotation
   JOINT Chest3
   {
    OFFSET 0.000000 9.561800 0.000000
    CHANNELS 3 Yrotation Xrotation Zrotation
    JOINT Chest4
    {
     OFFSET 0.000000 9.552100 0.000000
     CHANNELS 3 Yrotation Xrotation Zrotation
     JOINT Neck
     {
      OFFSET 0.000000 14.453000 0.000000
      CHANNELS 3 Yrotation Xrotation Zrotation
      JOINT Head
      {
       OFFSET 0.000000 8.936500 -0.011300
       CHANNELS 3 Yrotation Xrotation Zrotation
       End Site
       {
        OFFSET 0.000000 17.073600 -0.006000
       }
      }
     }
     JOINT RightCollar
     {
      OFFSET -2.921100 9.558500 0.000000
      CHANNELS 3 Yrotation Xrotation Zrotation
      JOINT RightShoulder
      {
       OFFSET -13.519700 0.000000 0.000000
       CHANNELS 3 Yrotation Xrotation Zrotation
       JOINT RightElbow
       {
        OFFSET 0.000000 -29.696600 0.000000
        CHANNELS 3 Yrotation Xrotation Zrotation
        JOINT RightWrist
        {
         OFFSET 0.000000 -24.004700 0.000000
         CHANNELS 3 Yrotation Xrotation Zrotation
         End Site
         {
          OFFSET 0.000000 -17.728500 0.000000
         }
        }
       }
      }
     }
     JOINT LeftCollar
     {
      OFFSET 2.921100 9.558500 0.000000
      CHANNELS 3 Yrotation Xrotation Zrotation
      JOINT LeftShoulder
      {
       OFFSET 13.519700 0.000000 0.000000
       CHANNELS 3 Yrotation Xrotation Zrotation
       JOINT LeftElbow
       {
        OFFSET 0.000000 -29.696600 0.000000
        CHANNELS 3 Yrotation Xrotation Zrotation
        JOINT LeftWrist
        {
         OFFSET 0.000000 -24.004700 0.000000
         CHANNELS 3 Yrotation Xrotation Zrotation
         End Site
         {
          OFFSET 0.000000 -17.728500 0.000000
         }
        }
       }
      }
     }
    }
   }
  }
 }
 JOINT RightHip
 {
  OFFSET -7.771700 -0.012900 -0.001300
  CHANNELS 3 Yrotation Xrotation Zrotation
  JOINT RightKnee
  {
   OFFSET 0.000000 -40.869800 0.001200
   CHANNELS 3 Yrotation Xrotation Zrotation
   JOINT RightAnkle
   {
    OFFSET 0.000000 -39.717900 0.002100
    CHANNELS 3 Yrotation Xrotation Zrotation
    JOINT RightToe
    {
     OFFSET 0.000000 -4.965400 11.033500
     CHANNELS 3 Yrotation Xrotation Zrotation
     End Site
     {
      OFFSET 0.000000 -1.423100 5.872300
     }
    }
   }
  }
 }
 JOINT LeftHip
 {
  OFFSET 7.771700 -0.012900 -0.001300
  CHANNELS 3 Yrotation Xrotation Zrotation
  JOINT LeftKnee
  {
   OFFSET 0.000000 -40.869800 0.001200
   CHANNELS 3 Yrotation Xrotation Zrotation
   JOINT LeftAnkle
   {
    OFFSET 0.000000 -39.717900 0.002100
    CHANNELS 3 Yrotation Xrotation Zrotation
    JOINT LeftToe
    {
     OFFSET 0.000000 -4.965400 11.033500
     CHANNELS 3 Yrotation Xrotation Zrotation
     End Site
     {
      OFFSET 0.000000 -1.423100 5.872300
     }
    }
   }
  }
 }
}
MOTION
Frames: 15
Frame Time: 0.008333
0.000000 85.388000 0.000000 0.000000 -5.767877 0.000000 0.000000 11.653817 0.000000 0.000000 -5.885947 0.000000 0.000000 -0.000000 0.000000 0.000000 -0.000000 0.000000 0.000000 12.528835 0.000000 0.000000 0.711642 0.000000 0.000000 -0.000000 0.000000 0.000000 0.000000 -90.000000 0.000000 -2.309062 0.000000 0.000000 2.309062 0.000000 0.000000 -0.000000 0.000000 0.000000 -0.000000 90.000000 0.000000 -2.309062 0.000000 0.000000 2.309062 0.000000 0.000000 8.520406 0.000000 0.000000 1.905762 0.000000 -0.000000 -4.658285 0.000000 0.000000 -0.000000 0.000000 0.000000 8.520406 0.000000 0.000000 1.905762 0.000000 -0.000000 -4.658285 0.000000 0.000000 -0.000000 0.000000
-23.187517 44.165252 26.014486 178.717677 -38.546947 -1.547207 1.844243 31.776773 0.908039 0.267268 6.581888 0.238947 0.449818 10.215762 0.381495 1.264232 25.026260 1.136128 -4.858320 12.156450 -13.736821 -2.194402 -12.579136 -14.624125 16.099343 2.623635 -4.407776 -4.651352 -31.857065 -3.471793 -61.987938 -13.822699 17.290582 -24.748135 -8.671853 -36.425661 -23.002933 0.943991 -9.265992 11.011645 -33.733624 1.254255 64.065714 -30.684654 -41.697689 25.466910 -2.668999 42.256001 -1.632942 -52.274498 7.410352 -153.262354 67.683848 -151.995015 -8.928745 -23.121093 7.499402 0.201561 -0.933239 0.052599 1.531436 -35.617446 -1.736607 175.940780 58.565884 175.445066 -0.810486 -44.257972 3.169241 0.178459 0.585255 -0.002107
-23.193640 44.169519 26.038559 178.732541 -38.519145 -1.592738 1.890003 31.781835 0.966035 0.281222 6.631843 0.244608 0.448484 10.246901 0.393527 1.283243 25.069284 1.161635 -4.903306 12.241873 -13.755233 -2.242670 -12.482501 -14.631372 16.205245 2.688110 -4.385541 -4.512752 -31.679025 -3.312489 -62.347385 -13.588675 16.654500 -24.781826 -8.824625 -36.853572 -23.103258 0.991171 -9.348762 11.156811 -33.667876 1.135367 63.885330 -30.323345 -41.357536 25.666362 -2.667962 41.193292 -1.689569 -52.300917 7.465489 -153.158691 67.715884 -151.898231 -8.909565 -23.104266 7.503620 0.198285 -0.907193 0.052414 1.503215 -35.654813 -1.696296 176.045063 58.603166 175.517630 -0.720175 -44.264723 3.201376 0.136075 0.572165 -0.017418
-23.204314 44.175925 26.063233 178.735044 -38.500578 -1.609129 1.930820 31.801304 1.003658 0.285361 6.659831 0.249634 0.455039 10.286769 0.401444 1.299690 25.105108 1.181405 -4.935945 12.328751 -13.769184 -2.277719 -12.384371 -14.635861 16.278336 2.755220 -4.359248 -4.376708 -31.502163 -3.100523 -62.682341 -13.502361 16.082270 -24.744932 -9.029396 -37.075516 -23.177382 1.013773 -9.415758 11.273331 -33.489556 1.007699 63.784424 -30.074394 -41.230281 25.831866 -2.619032 40.328981 -1.697311 -52.321079 7.470965 -153.083377 67.753661 -151.821758 -8.907273 -23.049515 7.495070 0.212813 -0.912669 0.062901 1.499253 -35.675990 -1.688974 176.083998 58.643275 175.537694 -0.686608 -44.291828 3.238478 0.119414 0.579421 -0.024354
-23.213829 44.183931 26.087638 178.717986 -38.488421 -1.621416 1.988015 31.829984 1.046944 0.289315 6.682429 0.253000 0.445514 10.272524 0.405594 1.330175 25.180411 1.194662 -4.956645 12.419587 -13.774235 -2.300992 -12.282244 -14.631752 16.323492 2.819981 -4.319987 -4.363493 -31.336827 -2.811016 -62.862667 -13.507522 15.575262 -24.653347 -9.287448 -37.102875 -23.215572 1.018916 -9.456275 11.337335 -33.231251 0.878403 63.718926 -29.932445 -41.226119 25.914675 -2.547165 39.658982 -1.690087 -52.338281 7.484201 -153.006916 67.788341 -151.736403 -8.905318 -22.988794 7.480932 0.236167 -0.922072 0.077714 1.513246 -35.696671 -1.678078 176.093798 58.673042 175.543783 -0.659998 -44.288146 3.254209 0.106107 0.582137 -0.027310
-23.222373 44.191060 26.113049 178.688868 -38.462569 -1.630067 2.039722 31.824509 1.083513 0.302073 6.725597 0.251263 0.440625 10.254910 0.414183 1.352117 25.246147 1.196528 -4.968876 12.516386 -13.769591 -2.316752 -12.173938 -14.616987 16.340524 2.877033 -4.264658 -4.496762 -31.176663 -2.450697 -62.859157 -13.573322 15.140204 -24.532252 -9.579990 -36.964797 -23.229997 0.992629 -9.456430 11.388168 -32.910205 0.736416 63.624460 -29.896042 -41.264841 25.904296 -2.447536 39.148876 -1.659839 -52.369253 7.485105 -152.955002 67.834278 -151.661357 -8.908924 -22.930755 7.471153 0.240762 -0.922824 0.086075 1.540120 -35.733257 -1.662662 176.098482 58.700482 175.550090 -0.641320 -44.281298 3.272184 0.095052 0.581614 -0.028522
-23.235757 44.200738 26.133298 178.727162 -38.459283 -1.647753 2.018337 31.845601 1.080195 0.302927 6.735257 0.250723 0.459099 10.311587 0.416378 1.356005 25.258053 1.193843 -4.978351 12.620416 -13.757322 -2.331053 -12.057842 -14.592796 16.327847 2.927585 -4.192664 -4.751965 -31.013495 -2.035864 -62.703742 -13.682248 14.787290 -24.400176 -9.879053 -36.692756 -23.188877 0.977771 -9.438613 11.404711 -32.585710 0.593280 63.454405 -29.960076 -41.294702 25.811412 -2.320696 38.759259 -1.666189 -52.371367 7.460108 -152.940303 67.856091 -151.636744 -8.960310 -22.898019 7.482228 0.258786 -0.929677 0.098816 1.580658 -35.747523 -1.704760 176.069708 58.727619 175.553232 -0.654428 -44.270903 3.309097 0.095087 0.514149 -0.008138
-23.239180 44.206452 26.156707 178.719033 -38.418317 -1.694298 2.076051 31.856822 1.140198 0.296708 6.714718 0.256152 0.472922 10.365129 0.412058 1.352126 25.217713 1.200358 -4.988406 12.769345 -13.756496 -2.346061 -11.933663 -14.563167 16.290347 3.019827 -4.108911 -5.099387 -30.842236 -1.577446 -62.433790 -13.824216 14.524449 -24.267621 -10.158072 -36.316061 -23.094566 1.016547 -9.437910 11.386184 -32.275302 0.450814 63.219239 -30.117737 -41.294730 25.653964 -2.180318 38.457031 -1.694514 -52.409574 7.510472 -152.928177 67.906874 -151.596439 -8.972123 -22.860784 7.468452 0.279302 -0.922151 0.104662 1.590447 -35.802022 -1.655183 176.060493 58.743314 175.563795 -0.667574 -44.277810 3.337190 0.094119 0.535415 -0.009625
-23.246272 44.212166 26.176821 178.739243 -38.381916 -1.736446 2.094862 31.871953 1.166672 0.298684 6.775331 0.230201 0.480514 10.383259 0.413088 1.369184 25.127721 1.238248 -5.011680 12.907534 -13.752429 -2.360512 -11.805858 -14.533583 16.218574 3.101660 -4.025088 -5.517871 -30.656994 -1.076554 -62.079881 -13.997705 14.349902 -24.151198 -10.400813 -35.861758 -23.001947 1.040012 -9.409531 11.352398 -31.956885 0.300643 62.961909 -30.355281 -41.264082 25.449175 -2.052316 38.215072 -1.725064 -52.444075 7.534726 -152.952768 67.942166 -151.602733 -8.995137 -22.836842 7.476080 0.291807 -0.919511 0.097045 1.601083 -35.850422 -1.633353 176.046527 58.759060 175.573572 -0.699281 -44.289691 3.366595 0.101164 0.525412 0.008451
-23.252459 44.216358 26.195586 178.753091 -38.337998 -1.783709 2.109320 31.877001 1.187667 0.290020 6.766165 0.223385 0.492365 10.368726 0.429498 1.352674 25.198526 1.206714 -5.012404 12.969441 -13.718372 -2.374441 -11.681301 -14.509232 16.150392 3.105869 -3.942292 -5.980413 -30.449024 -0.540598 -61.676365 -14.201930 14.257692 -24.066751 -10.601011 -35.359585 -22.870466 1.028277 -9.321566 11.263966 -31.652754 0.151293 62.732442 -30.655245 -41.222500 25.211329 -1.953756 38.014261 -1.769267 -52.482549 7.580041 -152.987618 67.987622 -151.620360 -9.031346 -22.817380 7.476891 0.301597 -0.909186 0.095639 1.616022 -35.917392 -1.600829 176.042501 58.763885 175.592787 -0.719289 -44.268644 3.393333 0.100221 0.486534 0.024709
-23.261373 44.221195 26.209839 178.788326 -38.310014 -1.834551 2.068644 31.911057 1.134310 0.301907 6.728042 0.257286 0.515110 10.366901 0.448476 1.315538 25.208819 1.184837 -5.015961 13.062980 -13.705818 -2.388114 -11.564211 -14.492925 16.078586 3.152349 -3.867270 -6.444718 -30.207403 0.001595 -61.267852 -14.428833 14.250274 -24.022455 -10.763700 -34.842028 -22.770997 1.039908 -9.280628 11.177687 -31.336620 0.026501 62.562112 -30.994626 -41.202363 24.954036 -1.885427 37.835689 -1.818990 -52.501926 7.610300 -153.008286 68.016136 -151.629610 -9.055020 -22.809011 7.484258 0.312011 -0.910636 0.105879 1.623414 -35.967879 -1.585682 176.018782 58.765340 175.596857 -0.746877 -44.241981 3.417706 0.108096 0.446106 0.039738
-23.270171 44.226133 26.220312 178.811641 -38.295190 -1.888013 2.039525 31.905383 1.119691 0.299893 6.723372 0.257467 0.489703 10.377819 0.424356 1.339580 25.185135 1.206749 -5.026150 13.161075 -13.705694 -2.400418 -11.454174 -14.484898 16.002543 3.212737 -3.800974 -6.870034 -29.928870 0.513170 -60.910674 -14.663221 14.340333 -24.012682 -10.903111 -34.333296 -22.580914 1.146785 -9.215131 11.034327 -31.060194 -0.166886 62.452767 -31.349881 -41.235534 24.699903 -1.839460 37.651782 -1.875950 -52.504908 7.657754 -153.029476 68.047022 -151.641849 -9.073306 -22.801977 7.487325 0.316503 -0.906156 0.105793 1.605162 -35.998197 -1.549634 176.008742 58.765677 175.595752 -0.762973 -44.228605 3.437101 0.112050 0.415754 0.045261
-23.276938 44.229498 26.229054 178.830911 -38.279119 -1.961919 2.017187 31.883187 1.124042 0.296482 6.715559 0.257464 0.472586 10.366201 0.414088 1.342375 25.175844 1.214030 -5.036682 13.252869 -13.711061 -2.411866 -11.350866 -14.484223 15.931594 3.275302 -3.742754 -7.226999 -29.621994 0.968839 -60.654208 -14.894158 14.529584 -24.024191 -11.029067 -33.858354 -22.381036 1.270665 -9.145810 10.955817 -30.768892 -0.402957 62.383178 -31.704145 -41.344215 24.473486 -1.807625 37.431147 -1.925252 -52.496070 7.708973 -153.067887 68.100506 -151.654883 -9.067811 -22.818286 7.489185 0.289191 -0.876385 0.098443 1.573262 -36.031567 -1.487962 176.085125 58.761196 175.670952 -0.724796 -44.218544 3.441631 0.101676 0.367286 0.051711
-23.279404 44.231485 26.235875 178.851666 -38.264292 -2.072919 2.008783 31.848265 1.167829 0.320190 6.723025 0.278787 0.434711 10.334556 0.394959 1.326314 25.163340 1.211543 -5.049764 13.336343 -13.720982 -2.425134 -11.256628 -14.489186 15.867227 3.337335 -3.694270 -7.488956 -29.293511 1.357114 -60.520265 -15.128300 14.796624 -24.057428 -11.144611 -33.462531 -22.207476 1.380581 -9.090873 10.993150 -30.443181 -0.662049 62.330696 -32.039986 -41.532605 24.287101 -1.792047 37.153818 -2.032395 -52.492080 7.830910 -153.057761 68.136138 -151.624734 -9.035687 -22.802906 7.481422 0.291085 -0.880532 0.099348 1.537596 -36.068667 -1.400045 176.100326 58.739846 175.721484 -0.702321 -44.205287 3.432974 0.100493 0.337034 0.060314
-23.289444 44.233296 26.238110 178.861334 -38.267780 -2.140093 2.011781 31.838206 1.204267 0.276095 6.687207 0.247427 0.442669 10.325265 0.404408 1.308300 25.149036 1.208148 -5.067152 13.410718 -13.734884 -2.442407 -11.172283 -14.498649 15.810325 3.395822 -3.655324 -7.641561 -28.947820 1.677496 -60.503429 -15.376518 15.106724 -24.111757 -11.248970 -33.185730 -22.043103 1.489300 -9.034724 11.122198 -30.093671 -0.952367 62.310396 -32.326775 -41.811286 24.112165 -1.806735 36.821946 -2.074048 -52.471748 7.882984 -153.044229 68.164327 -151.595815 -9.005950 -22.796197 7.474538 0.265047 -0.879167 0.108280 1.529877 -36.077708 -1.366175 176.105675 58.726147 175.751273 -0.670856 -44.195968 3.429115 0.099549 0.318567 0.062040
